<mxfile host="app.diagrams.net" modified="2024-06-06T09:04:51.754Z" agent="Mozilla/5.0 (Windows NT 10.0; Win64; x64; rv:126.0) Gecko/20100101 Firefox/126.0" etag="Ac6NSzuX02butfP9qHPl" version="24.4.13" type="device">
  <diagram name="Page-1" id="c4acf3e9-155e-7222-9cf6-157b1a14988f">
    <mxGraphModel dx="819" dy="442" grid="1" gridSize="10" guides="1" tooltips="1" connect="1" arrows="1" fold="1" page="1" pageScale="1" pageWidth="850" pageHeight="1100" background="none" math="0" shadow="0">
      <root>
        <mxCell id="0" />
        <mxCell id="1" parent="0" />
        <mxCell id="5d2195bd80daf111-18" value="&lt;p style=&quot;margin:0px;margin-top:4px;text-align:center;&quot;&gt;&lt;i&gt;display_controller&lt;/i&gt;&lt;/p&gt;&lt;hr size=&quot;1&quot;&gt;&lt;p style=&quot;margin:0px;margin-left:4px;&quot;&gt;- select : int&lt;/p&gt;&lt;p style=&quot;margin:0px;margin-left:4px;&quot;&gt;- selectOffset : int&lt;/p&gt;&lt;p style=&quot;margin:0px;margin-left:4px;&quot;&gt;- popup : bool&lt;/p&gt;&lt;p style=&quot;margin:0px;margin-left:4px;&quot;&gt;- monkeyNbr : int&lt;/p&gt;&lt;p style=&quot;margin:0px;margin-left:4px;&quot;&gt;- current_page : enum pages&lt;br&gt;&lt;/p&gt;&lt;hr size=&quot;1&quot;&gt;&lt;div&gt;// display controller methods&lt;br&gt;&lt;/div&gt;&lt;div&gt;+ displayController() : void&lt;/div&gt;&lt;div&gt;+ task_display_controller_init() : void&lt;br&gt;&lt;/div&gt;&lt;div&gt;&lt;br&gt;&lt;/div&gt;&lt;div&gt;+ updateMainPage() : void&lt;/div&gt;&lt;div&gt;&lt;div&gt;+ updateDevicePage() : void&lt;/div&gt;&lt;div&gt;+ disablePopup() : void&lt;br&gt;&lt;/div&gt;&lt;div&gt;&lt;br&gt;&lt;/div&gt;&lt;div&gt;+ connectDevice() : void&lt;/div&gt;&lt;div&gt;+ deviceConnected(monkey : struct Monkey) : void&lt;/div&gt;&lt;div&gt;+ deviceDisconnected() : void&lt;/div&gt;&lt;div&gt;&lt;br&gt;&lt;/div&gt;&lt;div&gt;// callbacks from button controller&lt;/div&gt;&lt;div&gt;+ downPressed() : void&lt;/div&gt;&lt;div&gt;+ upPressed() : void&lt;/div&gt;&lt;div&gt;+ selectPressed() : void&lt;/div&gt;&lt;div&gt;+ triggerPressed() : void&lt;/div&gt;&lt;div&gt;&lt;br&gt;&lt;/div&gt;&lt;div&gt;// callbacks from BLE&lt;/div&gt;&lt;div&gt;+ onConnected(monkey : struct Monkey) : void&lt;/div&gt;&lt;div&gt;+ onDisconnected() : void&lt;/div&gt;&lt;div&gt;+ onConnectionFailed() : void&lt;/div&gt;&lt;div&gt;+ onUpdateInfos(monkeay : struct Monkey) : void&lt;br&gt;&lt;/div&gt;&lt;div&gt;&lt;br&gt;&lt;/div&gt;&lt;br&gt;&lt;/div&gt;&lt;p style=&quot;margin:0px;margin-left:4px;&quot;&gt;&lt;br&gt;&lt;/p&gt;&lt;p style=&quot;margin:0px;margin-left:4px;&quot;&gt;&lt;br&gt;&lt;/p&gt;" style="verticalAlign=top;align=left;overflow=fill;fontSize=12;fontFamily=Helvetica;html=1;rounded=0;shadow=0;comic=0;labelBackgroundColor=none;strokeWidth=1" parent="1" vertex="1">
          <mxGeometry x="80" y="90" width="300" height="460" as="geometry" />
        </mxCell>
      </root>
    </mxGraphModel>
  </diagram>
</mxfile>
